<svg version="1.1" xmlns="http://www.w3.org/2000/svg" viewBox="0 0 727.91796875 479.8125" width="727.91796875" height="479.8125" filter="invert(93%) hue-rotate(180deg)">
  <!-- svg-source:excalidraw -->
  
  <defs>
    <style class="style-fonts">
      @font-face {
        font-family: "Virgil";
        src: url("https://excalidraw.com/Virgil.woff2");
      }
      @font-face {
        font-family: "Cascadia";
        src: url("https://excalidraw.com/Cascadia.woff2");
      }
    </style>
    
  </defs>
  <g stroke-linecap="round" transform="translate(36.55409307065145 327.96331521739154) rotate(0 133.54110054347825 62.403192934782595)"><path d="M31.2 0 M31.2 0 C100.93 0.22, 172.38 -0.86, 235.88 0 M235.88 0 C256.53 -1.25, 266.67 12.12, 267.08 31.2 M267.08 31.2 C267.28 49.41, 266.08 65.53, 267.08 93.6 M267.08 93.6 C265.64 112.74, 256.3 124.52, 235.88 124.81 M235.88 124.81 C171.24 126.33, 108.65 124.66, 31.2 124.81 M31.2 124.81 C12.14 126.34, -1.85 115.55, 0 93.6 M0 93.6 C-1.77 78.3, 1.39 65.58, 0 31.2 M0 31.2 C-0.83 8.68, 8.53 -0.53, 31.2 0" stroke="#1e1e1e" stroke-width="1" fill="none" stroke-dasharray="8 8.5"/></g><g stroke-linecap="round"><g transform="translate(544.5534137228252 239.20312500000023) rotate(0 12.708899456521749 -16.9140625)"><path d="M-0.89 -0.76 C3.07 -6.66, 19.88 -29.02, 24.28 -34.66 M0.84 1.46 C5.12 -4.37, 22.41 -27.7, 26.39 -33.56" stroke="#1e1e1e" stroke-width="0.5" fill="none"/></g></g><mask/><g stroke-linecap="round"><g transform="translate(606.77827785326 200.5788043478263) rotate(0 12.329481118555165 21.35528772829869)"><path d="M0.98 -0.49 C5.04 6.77, 20.78 35, 24.86 42.4 M0.04 -1.79 C3.91 5.74, 19.84 36.45, 24.02 43.77" stroke="#1e1e1e" stroke-width="0.5" fill="none"/></g></g><mask/><g stroke-linecap="round"><g transform="translate(556.5846637228252 263.2180706521741) rotate(0 29.043817934782624 1.0920516304347814)"><path d="M0.62 -0.68 C10.19 -0.37, 48.56 0.61, 58.04 1.03 M-0.52 1.58 C8.84 2.07, 47.57 1.73, 57.06 1.96" stroke="#1e1e1e" stroke-width="0.5" fill="none"/></g></g><mask/><g stroke-linecap="round" transform="translate(472.82447350543396 121.77785326086985) rotate(0 113.45957880434781 113.45957880434781)"><path d="M97.07 1.59 C109.77 -1.89, 125.92 0.18, 139.36 3 C152.79 5.82, 166.4 10.8, 177.69 18.52 C188.98 26.23, 199.39 37.99, 207.1 49.3 C214.8 60.61, 220.74 73.12, 223.91 86.37 C227.08 99.61, 228.01 115.34, 226.12 128.79 C224.23 142.23, 219.11 155.27, 212.55 167.03 C205.99 178.8, 197.24 190.33, 186.74 199.38 C176.24 208.42, 162.59 216.58, 149.55 221.3 C136.52 226.02, 122.1 228.26, 108.52 227.71 C94.93 227.16, 80.38 223.66, 68.04 218 C55.7 212.34, 44.11 203.55, 34.47 193.78 C24.84 184.01, 15.81 171.82, 10.23 159.38 C4.65 146.93, 1.68 132.79, 0.99 119.1 C0.31 105.4, 1.9 90.24, 6.12 77.21 C10.34 64.17, 17.58 51.4, 26.32 40.89 C35.07 30.37, 43.64 21.01, 58.59 14.12 C73.54 7.22, 103.08 1.21, 116.02 -0.48 C128.96 -2.18, 136.18 1.86, 136.21 3.93" stroke="#1e1e1e" stroke-width="1" fill="none" stroke-dasharray="8 8.5"/></g><g stroke-linecap="round"><g transform="translate(306.2551800271731 80.66032608695673) rotate(0 90.29211956521738 46.75611413043475)"><path d="M-0.98 -0.25 C29.15 15.19, 150.19 76.7, 180.33 92.4" stroke="#1e1e1e" stroke-width="1" fill="none" stroke-dasharray="8 8.5"/></g><g transform="translate(306.2551800271731 80.66032608695673) rotate(0 90.29211956521738 46.75611413043475)"><path d="M150.15 88.23 C156.44 88.64, 166.8 89.86, 181.31 94.25" stroke="#1e1e1e" stroke-width="1" fill="none"/></g><g transform="translate(306.2551800271731 80.66032608695673) rotate(0 90.29211956521738 46.75611413043475)"><path d="M159.53 69.97 C163.34 75.05, 171.27 81.01, 181.31 94.25" stroke="#1e1e1e" stroke-width="1" fill="none"/></g></g><mask/><g stroke-linecap="round"><g transform="translate(306.00721807065133 392.16508152173924) rotate(0 89.96263586956519 -45.477241847826065)"><path d="M-0.53 1.01 C29.76 -13.93, 150.71 -74.71, 180.94 -89.93" stroke="#1e1e1e" stroke-width="1" fill="none" stroke-dasharray="8 8.5"/></g><g transform="translate(306.00721807065133 392.16508152173924) rotate(0 89.96263586956519 -45.477241847826065)"><path d="M162.03 -66.41 C166.97 -71.68, 171.22 -77.86, 182.53 -91.21" stroke="#1e1e1e" stroke-width="1" fill="none"/></g><g transform="translate(306.00721807065133 392.16508152173924) rotate(0 89.96263586956519 -45.477241847826065)"><path d="M152.82 -84.74 C159.88 -85.66, 166.29 -87.52, 182.53 -91.21" stroke="#1e1e1e" stroke-width="1" fill="none"/></g></g><mask/><g stroke-linecap="round"><g transform="translate(153.55816915760784 76.27853260869585) rotate(0 38.05027173913044 0)"><path d="M-0.23 -1.06 C12.56 -0.95, 63.51 0.82, 76.05 0.82" stroke="#1e1e1e" stroke-width="1" fill="none" stroke-dasharray="8 8.5"/></g></g><mask/><g stroke-linecap="round"><g transform="translate(151.88018002717308 234.24048913043492) rotate(0 17.026154891304316 0)"><path d="M0.73 0.04 C6.17 0.06, 27.32 -0.87, 32.86 -1.06" stroke="#1e1e1e" stroke-width="1" fill="none" stroke-dasharray="8 8.5"/></g></g><mask/><g stroke-linecap="round"><g transform="translate(154.23072350543396 388.78192934782624) rotate(0 37.43546195652175 0)"><path d="M-0.84 -0.16 C11.73 -0.41, 63.39 -0.73, 76 -0.77" stroke="#1e1e1e" stroke-width="1" fill="none" stroke-dasharray="8 8.5"/></g></g><mask/><g stroke-linecap="round" transform="translate(63.876188858695514 343.13502038043475) rotate(0 43.08203125 43.08203125)"><path d="M42.92 0.86 C50.27 0.51, 59.75 3.68, 66.17 7.72 C72.6 11.75, 78.12 18.26, 81.47 25.06 C84.81 31.86, 87.2 40.91, 86.22 48.5 C85.23 56.09, 80.87 64.65, 75.56 70.61 C70.25 76.57, 61.81 81.92, 54.34 84.24 C46.87 86.56, 38.15 86.72, 30.75 84.55 C23.36 82.37, 15.04 76.92, 9.95 71.18 C4.87 65.44, 1.12 57.77, 0.24 50.1 C-0.65 42.43, 1.25 32.23, 4.66 25.14 C8.08 18.06, 13.24 11.57, 20.7 7.58 C28.16 3.58, 43.46 1.86, 49.4 1.18 C55.34 0.51, 56.27 3.05, 56.33 3.53 M32.37 -0.09 C38.97 -2.56, 48.29 -0.75, 55.84 2 C63.39 4.74, 72.5 10.43, 77.66 16.37 C82.82 22.31, 86.02 29.67, 86.79 37.62 C87.56 45.56, 85.92 56.74, 82.26 64.04 C78.61 71.34, 71.75 77.53, 64.87 81.41 C57.98 85.3, 48.84 87.99, 40.94 87.36 C33.04 86.73, 23.63 82.25, 17.45 77.62 C11.28 73, 6.68 66.53, 3.88 59.6 C1.08 52.67, -0.51 43.79, 0.67 36.05 C1.85 28.3, 5.39 19.05, 10.98 13.11 C16.58 7.17, 30.66 2.01, 34.25 0.4 C37.84 -1.21, 32.63 2.4, 32.5 3.43" stroke="#1e1e1e" stroke-width="1" fill="none"/></g><g stroke-linecap="round" transform="translate(558.9645040760867 148.62754755434787) rotate(0 28.771569293478247 28.77156929347825)"><path d="M38.13 1.12 C43.91 2.63, 50.33 8.75, 53.48 14.15 C56.63 19.54, 57.93 27.63, 57.04 33.49 C56.14 39.36, 52.66 45.44, 48.1 49.36 C43.54 53.28, 35.97 56.53, 29.69 56.99 C23.42 57.46, 15.15 55.76, 10.43 52.18 C5.7 48.59, 2.46 41.75, 1.33 35.49 C0.19 29.24, 0.96 20.32, 3.59 14.66 C6.23 9.01, 10.75 3.39, 17.15 1.56 C23.56 -0.26, 37.02 2.82, 42.02 3.71 C47.02 4.61, 47.42 6.57, 47.14 6.95 M38.01 1.35 C43.29 3.05, 49.16 9.87, 52.17 15.03 C55.18 20.2, 57.04 26.46, 56.08 32.34 C55.12 38.23, 50.98 45.98, 46.4 50.35 C41.83 54.73, 34.7 58.39, 28.61 58.58 C22.53 58.77, 14.56 55.54, 9.91 51.52 C5.25 47.5, 1.93 40.4, 0.68 34.47 C-0.57 28.54, -0.3 21.31, 2.42 15.92 C5.13 10.52, 10.84 4.5, 16.96 2.1 C23.09 -0.29, 35.64 1.45, 39.16 1.54 C42.67 1.62, 38.29 2.31, 38.04 2.62" stroke="#1e1e1e" stroke-width="1" fill="none"/></g><g stroke-linecap="round" transform="translate(497.5174932065214 235.92713994565213) rotate(0 28.771569293478247 28.77156929347825)"><path d="M17.17 2.21 C22.23 -0.46, 30.59 0.44, 36.39 2.1 C42.19 3.75, 48.39 7.2, 51.98 12.16 C55.56 17.13, 58.3 25.62, 57.89 31.89 C57.49 38.16, 54.09 45.56, 49.54 49.78 C45 53.99, 36.87 56.67, 30.62 57.18 C24.38 57.7, 17.18 56.33, 12.07 52.85 C6.95 49.37, 1.59 42.56, -0.07 36.28 C-1.74 30, -1.58 21.22, 2.09 15.19 C5.77 9.16, 18.05 2.35, 22 0.1 C25.95 -2.16, 25.82 1.05, 25.78 1.64 M16.83 0.74 C22.1 -1.5, 29.92 0.14, 36.19 2 C42.46 3.85, 51.08 6.62, 54.46 11.89 C57.84 17.16, 57.65 27.19, 56.47 33.63 C55.29 40.07, 51.68 46.64, 47.39 50.53 C43.09 54.42, 36.65 56.81, 30.71 56.98 C24.76 57.15, 16.75 55.14, 11.71 51.54 C6.67 47.94, 1.72 41.43, 0.49 35.37 C-0.74 29.32, 1.51 20.69, 4.31 15.21 C7.12 9.73, 14.85 4.57, 17.3 2.51 C19.75 0.46, 18.96 2.25, 18.99 2.88" stroke="#1e1e1e" stroke-width="1" fill="none"/></g><g stroke-linecap="round" transform="translate(617.1642323369563 235.92713994565213) rotate(0 28.77156929347825 28.77156929347825)"><path d="M26.89 0.83 C32.53 0.18, 40.19 1.69, 45.24 5.33 C50.29 8.97, 55.62 16.49, 57.18 22.65 C58.75 28.82, 57.54 36.97, 54.64 42.3 C51.74 47.63, 45.51 52.35, 39.77 54.65 C34.03 56.95, 26.07 57.89, 20.21 56.1 C14.34 54.31, 7.96 49.04, 4.58 43.9 C1.19 38.77, -0.8 31.14, -0.11 25.3 C0.57 19.46, 3.76 13.23, 8.68 8.85 C13.6 4.47, 25.73 0.23, 29.42 -0.98 C33.1 -2.19, 31.03 0.84, 30.77 1.61 M17.7 1.97 C23.17 -0.26, 31.83 1.04, 37.59 2.59 C43.34 4.13, 48.9 6.5, 52.24 11.24 C55.59 15.99, 58.35 24.58, 57.66 31.06 C56.98 37.53, 52.4 45.77, 48.12 50.11 C43.85 54.45, 37.83 56.76, 32 57.12 C26.18 57.48, 18.2 55.72, 13.16 52.3 C8.12 48.87, 3.55 42.39, 1.75 36.57 C-0.06 30.75, -0.25 23.21, 2.34 17.38 C4.93 11.56, 14.84 3.99, 17.3 1.61 C19.76 -0.77, 17.01 2.67, 17.09 3.11" stroke="#1e1e1e" stroke-width="1" fill="none"/></g><g stroke-linecap="round" transform="translate(36.55409307065145 172.56250000000023) rotate(0 133.54110054347825 62.403192934782595)"><path d="M31.2 0 M31.2 0 C88.59 -1.74, 142.06 0.75, 235.88 0 M235.88 0 C258.46 -1.16, 268.75 10.25, 267.08 31.2 M267.08 31.2 C268.15 50.93, 265.23 67.5, 267.08 93.6 M267.08 93.6 C267.9 112.98, 256.04 123.49, 235.88 124.81 M235.88 124.81 C173.13 123.76, 108.09 124.81, 31.2 124.81 M31.2 124.81 C9.28 126.63, -0.41 114.43, 0 93.6 M0 93.6 C-1.22 77.78, -0.76 65.49, 0 31.2 M0 31.2 C1.77 10.77, 9.33 1.8, 31.2 0" stroke="#e03131" stroke-width="1" fill="none" stroke-dasharray="8 8.5"/></g><g stroke-linecap="round" transform="translate(63.876188858695514 187.73420516304344) rotate(0 43.08203125 43.08203125)"><path d="M55.45 1.5 C62.58 2.97, 70.34 8.41, 75.27 14.31 C80.19 20.21, 83.72 29.36, 85 36.89 C86.27 44.43, 86.06 52.43, 82.91 59.51 C79.76 66.59, 72.75 75, 66.1 79.39 C59.44 83.78, 50.73 85.78, 42.99 85.84 C35.25 85.9, 26.11 83.89, 19.66 79.76 C13.21 75.62, 7.45 68.07, 4.3 61.03 C1.14 53.99, -0.16 45.04, 0.72 37.51 C1.6 29.99, 4.73 21.65, 9.57 15.88 C14.42 10.1, 22.05 5.14, 29.79 2.84 C37.52 0.53, 51.48 2.01, 55.96 2.05 C60.45 2.08, 56.74 2.47, 56.69 3.03 M28.51 3.32 C35.13 0.2, 43.27 0.81, 50.55 2.15 C57.83 3.49, 66.65 6.31, 72.18 11.37 C77.71 16.43, 82.04 24.74, 83.73 32.52 C85.43 40.3, 84.7 50.51, 82.34 58.05 C79.98 65.58, 75.57 72.92, 69.58 77.72 C63.58 82.52, 54.13 86.37, 46.38 86.82 C38.62 87.27, 29.78 83.88, 23.05 80.4 C16.33 76.93, 9.72 72.66, 6.03 65.96 C2.34 59.26, 0.47 48.34, 0.92 40.22 C1.36 32.1, 4.25 23.4, 8.72 17.23 C13.2 11.06, 24.46 5.57, 27.79 3.22 C31.12 0.86, 28.7 2.62, 28.71 3.11" stroke="#1e1e1e" stroke-width="1" fill="none"/></g><g stroke-linecap="round" transform="translate(36.55409307065145 19.335597826087223) rotate(0 133.54110054347825 62.403192934782595)"><path d="M31.2 0 M31.2 0 C97.62 -0.55, 160.64 1.24, 235.88 0 M235.88 0 C256.66 0.75, 267.71 8.7, 267.08 31.2 M267.08 31.2 C266.11 50.41, 266.51 71.37, 267.08 93.6 M267.08 93.6 C268.8 113.89, 255.3 123.78, 235.88 124.81 M235.88 124.81 C165.42 125.69, 99.18 125.37, 31.2 124.81 M31.2 124.81 C8.57 123.05, -0.1 116.17, 0 93.6 M0 93.6 C0.71 77.07, 1.71 64.96, 0 31.2 M0 31.2 C0.77 9.1, 10.39 -1.79, 31.2 0" stroke="#1e1e1e" stroke-width="1" fill="none" stroke-dasharray="8 8.5"/></g><g stroke-linecap="round" transform="translate(63.876188858695514 34.50730298913044) rotate(0 43.08203125 43.08203125)"><path d="M28.09 2 C34.74 -1.36, 43.59 -1.4, 50.94 0.29 C58.29 1.99, 66.4 6.78, 72.19 12.17 C77.97 17.55, 83.87 25.13, 85.64 32.61 C87.41 40.08, 85.59 49.45, 82.79 57.03 C80 64.61, 74.91 73.3, 68.87 78.08 C62.83 82.86, 54.14 85.08, 46.56 85.7 C38.97 86.32, 30.25 85.29, 23.35 81.8 C16.45 78.31, 8.93 71.79, 5.17 64.77 C1.42 57.75, 0.34 47.44, 0.8 39.68 C1.26 31.92, 3 24.49, 7.93 18.19 C12.87 11.89, 26.01 4.63, 30.4 1.87 C34.78 -0.89, 33.86 1.07, 34.23 1.62 M44.28 0.82 C51.68 0.34, 62.61 2.95, 69.26 7.16 C75.91 11.36, 81.28 18.55, 84.18 26.05 C87.08 33.55, 88.05 44.39, 86.68 52.17 C85.32 59.95, 81.66 67.06, 75.99 72.75 C70.32 78.45, 60.25 84.52, 52.66 86.35 C45.07 88.19, 37.61 86.73, 30.46 83.76 C23.31 80.79, 14.82 74.54, 9.75 68.51 C4.68 62.48, 0.76 55.29, 0.03 47.56 C-0.69 39.84, 1.8 29.04, 5.4 22.17 C9 15.29, 15.01 10.24, 21.62 6.34 C28.22 2.43, 40.94 -0.33, 45.04 -1.26 C49.14 -2.18, 46.13 -0.31, 46.24 0.79" stroke="#1e1e1e" stroke-width="1" fill="none"/></g><g stroke-linecap="round" transform="translate(197.56292459239012 71.56046195652175) rotate(270 42.30808423913044 7.933084239130437)"><path d="M3.97 0 M3.97 0 C32.16 0.75, 63.27 0.32, 80.65 0 M3.97 0 C30.21 0.25, 56.4 -0.21, 80.65 0 M80.65 0 C81.69 -1.12, 82.86 0.61, 84.62 3.97 M80.65 0 C82.07 -1.35, 83.04 2.89, 84.62 3.97 M84.62 3.97 C83.79 5.61, 84.91 7.85, 84.62 11.9 M84.62 3.97 C84.38 6.84, 84.36 9.09, 84.62 11.9 M84.62 11.9 C83.54 16.1, 82.89 14.4, 80.65 15.87 M84.62 11.9 C83.77 14.96, 82.95 16.8, 80.65 15.87 M80.65 15.87 C60.07 17.04, 40.84 14.19, 3.97 15.87 M80.65 15.87 C64.92 15.06, 46.87 16.06, 3.97 15.87 M3.97 15.87 C0.92 17.61, -0.05 15.55, 0 11.9 M3.97 15.87 C-0.89 17.49, -0.54 16.13, 0 11.9 M0 11.9 C-0.31 8.91, 0.44 5.96, 0 3.97 M0 11.9 C0.12 10.12, -0.35 7.97, 0 3.97 M0 3.97 C0.85 -0.61, 0.2 1.95, 3.97 0 M0 3.97 C-2.16 -0.15, -0.84 0.35, 3.97 0" stroke="#1e1e1e" stroke-width="0.5" fill="none"/></g><g stroke-linecap="round" transform="translate(221.21781589673844 71.56046195652164) rotate(270 42.30808423913044 7.933084239130437)"><path d="M3.97 0 M3.97 0 C29.01 0.07, 52.11 -0.29, 80.65 0 M3.97 0 C23.41 -0.5, 40.42 -0.42, 80.65 0 M80.65 0 C81.53 -0.71, 83.55 0.14, 84.62 3.97 M80.65 0 C81.72 1.56, 84.12 0.32, 84.62 3.97 M84.62 3.97 C84.86 6.49, 84.81 10.63, 84.62 11.9 M84.62 3.97 C84.25 6.28, 84.35 9.24, 84.62 11.9 M84.62 11.9 C84.21 13.07, 82.56 16.23, 80.65 15.87 M84.62 11.9 C84.27 15.48, 82.48 14.02, 80.65 15.87 M80.65 15.87 C55.46 14.23, 27.01 14.24, 3.97 15.87 M80.65 15.87 C60.66 16.06, 41.51 16.39, 3.97 15.87 M3.97 15.87 C1.27 16.88, -1.92 15.96, 0 11.9 M3.97 15.87 C0.78 17.46, 1.22 12.88, 0 11.9 M0 11.9 C0.42 9.05, -0.23 7.52, 0 3.97 M0 11.9 C-0.32 9.11, 0.13 5.34, 0 3.97 M0 3.97 C-1.12 3.27, -0.56 -1.28, 3.97 0 M0 3.97 C-2.16 1.67, -0.77 -2.01, 3.97 0" stroke="#1e1e1e" stroke-width="0.5" fill="none"/></g><g stroke-linecap="round" transform="translate(151.1702615489122 228.52038043478314) rotate(270 42.30808423913044 7.933084239130437)"><path d="M3.97 0 M3.97 0 C27.49 1.91, 54.29 -0.77, 80.65 0 M3.97 0 C31.07 -1.38, 57.42 -0.17, 80.65 0 M80.65 0 C81.35 1.31, 84.11 0.29, 84.62 3.97 M80.65 0 C83.98 1.92, 85.85 2.91, 84.62 3.97 M84.62 3.97 C84.96 5.41, 84.12 8.47, 84.62 11.9 M84.62 3.97 C84.22 6.42, 84.78 7.95, 84.62 11.9 M84.62 11.9 C83.08 12.91, 85.04 13.87, 80.65 15.87 M84.62 11.9 C84.07 12.84, 81.01 17.52, 80.65 15.87 M80.65 15.87 C65.62 16.47, 48.27 14.33, 3.97 15.87 M80.65 15.87 C56.08 15.23, 31.07 15.47, 3.97 15.87 M3.97 15.87 C-0.39 16.73, -0.34 15.03, 0 11.9 M3.97 15.87 C1.09 16.74, -2.07 13.32, 0 11.9 M0 11.9 C-0.55 9.76, 0.22 7.5, 0 3.97 M0 11.9 C0.35 10.51, -0.35 8.73, 0 3.97 M0 3.97 C-1.84 1.37, -0.57 -0.77, 3.97 0 M0 3.97 C-0.65 2.27, 1.03 2.3, 3.97 0" stroke="#1e1e1e" stroke-width="0.5" fill="none"/></g><g stroke-linecap="round" transform="translate(174.7062669836949 228.52038043478274) rotate(270 42.30808423913044 7.933084239130437)"><path d="M3.97 0 M3.97 0 C20.76 -1.93, 37.09 -0.29, 80.65 0 M3.97 0 C32.99 1.03, 61.57 1.23, 80.65 0 M80.65 0 C82.79 -1.03, 85.22 2.99, 84.62 3.97 M80.65 0 C84.53 1.59, 83.27 1.28, 84.62 3.97 M84.62 3.97 C84.16 6.75, 84.38 8.14, 84.62 11.9 M84.62 3.97 C84.7 6.42, 84.23 9.01, 84.62 11.9 M84.62 11.9 C86.36 12.55, 82.82 14.39, 80.65 15.87 M84.62 11.9 C82.33 16.19, 81.04 16.69, 80.65 15.87 M80.65 15.87 C62.33 15.4, 47.38 16.89, 3.97 15.87 M80.65 15.87 C62.33 15.63, 41.18 16.09, 3.97 15.87 M3.97 15.87 C0.98 16.35, -0.2 15.31, 0 11.9 M3.97 15.87 C-0.75 14.64, -0.64 16.01, 0 11.9 M0 11.9 C0.32 10.04, -0.55 8.25, 0 3.97 M0 11.9 C-0.43 10.16, -0.43 7.64, 0 3.97 M0 3.97 C-1.89 0.55, 0.76 0.82, 3.97 0 M0 3.97 C-0.29 3.62, -0.78 -0.57, 3.97 0" stroke="#1e1e1e" stroke-width="0.5" fill="none"/></g><g stroke-linecap="round" transform="translate(197.56292459239012 228.52038043478257) rotate(270 42.30808423913044 7.933084239130437)"><path d="M3.97 0 M3.97 0 C32.63 0.74, 60.92 1.05, 80.65 0 M3.97 0 C20.26 0.31, 38.25 -0.87, 80.65 0 M80.65 0 C83.89 1.67, 85.69 2.7, 84.62 3.97 M80.65 0 C81.95 -0.04, 83.83 2.32, 84.62 3.97 M84.62 3.97 C84.29 5.82, 84.87 6.99, 84.62 11.9 M84.62 3.97 C84.35 6.71, 85 9.71, 84.62 11.9 M84.62 11.9 C84.14 13.06, 81.31 17.3, 80.65 15.87 M84.62 11.9 C82.36 15.37, 81.47 16.41, 80.65 15.87 M80.65 15.87 C53.61 16.07, 24.42 16.94, 3.97 15.87 M80.65 15.87 C58.87 16.28, 38.63 16.09, 3.97 15.87 M3.97 15.87 C1.12 16.63, -1.8 13.48, 0 11.9 M3.97 15.87 C0.68 17.33, -1.73 13.1, 0 11.9 M0 11.9 C-0.62 9.42, -0.27 7.78, 0 3.97 M0 11.9 C-0.29 8.75, -0.3 5.43, 0 3.97 M0 3.97 C-0.56 2.14, 1.07 2, 3.97 0 M0 3.97 C-2.1 0.75, -0.21 -0.75, 3.97 0" stroke="#1e1e1e" stroke-width="0.5" fill="none"/></g><g stroke-linecap="round" transform="translate(221.21781589673844 228.52038043478245) rotate(270 42.30808423913044 7.933084239130437)"><path d="M3.97 0 M3.97 0 C23.01 0.42, 37.27 -0.61, 80.65 0 M3.97 0 C30.22 -1.02, 57.27 0.33, 80.65 0 M80.65 0 C84.37 1.38, 83.45 1.29, 84.62 3.97 M80.65 0 C82.51 0.99, 83.23 -0.1, 84.62 3.97 M84.62 3.97 C84.89 6.24, 85.28 10.4, 84.62 11.9 M84.62 3.97 C84.9 5.49, 84.46 7.51, 84.62 11.9 M84.62 11.9 C82.63 15.98, 81.34 16.58, 80.65 15.87 M84.62 11.9 C82.8 15.08, 84.68 14.27, 80.65 15.87 M80.65 15.87 C60.24 17.51, 41.23 18.05, 3.97 15.87 M80.65 15.87 C57.67 16.44, 34.93 16.58, 3.97 15.87 M3.97 15.87 C-0.48 14.8, -0.56 15.82, 0 11.9 M3.97 15.87 C-0.41 14.42, 0.05 15.32, 0 11.9 M0 11.9 C-0.18 10.28, 0.84 6.58, 0 3.97 M0 11.9 C-0.3 8.58, -0.04 5.72, 0 3.97 M0 3.97 C-0.25 3.32, -0.51 -0.49, 3.97 0 M0 3.97 C-1.54 0.57, 0.56 0.56, 3.97 0" stroke="#1e1e1e" stroke-width="0.5" fill="none"/></g><g stroke-linecap="round" transform="translate(197.56292459239012 382.29755434782606) rotate(270 42.30808423913044 7.933084239130437)"><path d="M3.97 0 M3.97 0 C20.78 0.66, 38.52 1.42, 80.65 0 M3.97 0 C21.36 0.44, 40.51 -0.15, 80.65 0 M80.65 0 C84.01 -1.65, 85.04 1.78, 84.62 3.97 M80.65 0 C84.44 -1.81, 83.37 2.5, 84.62 3.97 M84.62 3.97 C84.57 5.92, 85.06 8.23, 84.62 11.9 M84.62 3.97 C84.41 6.06, 84.99 7.29, 84.62 11.9 M84.62 11.9 C83.75 15.53, 82.78 14.94, 80.65 15.87 M84.62 11.9 C86.39 13.82, 83.02 15.58, 80.65 15.87 M80.65 15.87 C61.14 17.2, 39.67 15.23, 3.97 15.87 M80.65 15.87 C61.53 15.57, 43.71 16.29, 3.97 15.87 M3.97 15.87 C3.25 16.95, 0.42 13.28, 0 11.9 M3.97 15.87 C-0.14 13.65, -2.29 12.55, 0 11.9 M0 11.9 C-0.69 9.29, -0.22 7.58, 0 3.97 M0 11.9 C0.18 9.07, -0.3 5.59, 0 3.97 M0 3.97 C-0.78 -0.02, 2.87 0.1, 3.97 0 M0 3.97 C2.22 1.19, 0.29 0.75, 3.97 0" stroke="#1e1e1e" stroke-width="0.5" fill="none"/></g><g stroke-linecap="round" transform="translate(221.21781589673844 382.29755434782595) rotate(270 42.30808423913044 7.933084239130437)"><path d="M3.97 0 M3.97 0 C23.72 -1.5, 45.69 -0.64, 80.65 0 M3.97 0 C35.24 -0.07, 64.54 0.09, 80.65 0 M80.65 0 C84.46 -1.64, 84.21 0.06, 84.62 3.97 M80.65 0 C81.05 1.16, 84.6 2.3, 84.62 3.97 M84.62 3.97 C84.08 6.84, 84.75 8.56, 84.62 11.9 M84.62 3.97 C84.88 6.18, 84.66 8.8, 84.62 11.9 M84.62 11.9 C82.75 14.61, 84.79 14.83, 80.65 15.87 M84.62 11.9 C83.81 13.32, 81.26 15.72, 80.65 15.87 M80.65 15.87 C54.91 16.91, 30.92 16.59, 3.97 15.87 M80.65 15.87 C60.1 15.57, 40.09 14.45, 3.97 15.87 M3.97 15.87 C2.29 15.04, -1.62 15.18, 0 11.9 M3.97 15.87 C2.63 14.71, -0.75 15.93, 0 11.9 M0 11.9 C0.76 8.59, 0.51 5.63, 0 3.97 M0 11.9 C0.05 10.01, -0.01 8.33, 0 3.97 M0 3.97 C0.02 1.89, -0.34 0.6, 3.97 0 M0 3.97 C1.69 0.13, 2.61 -1.76, 3.97 0" stroke="#1e1e1e" stroke-width="0.5" fill="none"/></g></svg>